<?xml version="1.0" encoding="utf-8"?>
<!-- Generator: Adobe Illustrator 16.0.0, SVG Export Plug-In . SVG Version: 6.00 Build 0)  -->
<!DOCTYPE svg PUBLIC "-//W3C//DTD SVG 1.1//EN" "http://www.w3.org/Graphics/SVG/1.1/DTD/svg11.dtd">
<svg version="1.1" id="圖層_1" xmlns="http://www.w3.org/2000/svg" xmlns:xlink="http://www.w3.org/1999/xlink" x="0px" y="0px"
	 width="115.85px" height="66.566px" viewBox="0 0 115.85 66.566" enable-background="new 0 0 115.85 66.566" xml:space="preserve">
<g>
	<g>
		<g>
			<g>
				<path fill="#004DA0" d="M40.752,49.365h5.185l6.589-25.04c3.473-4.012,6.593-8.623,6.593-8.623s-1.065-0.519-2.413-1.244
					c-1.347-0.724-2.207-1.241-2.207-1.241s-2.79,5.257-7.05,10.147c-3.577,4.106-7.125,7.064-7.125,7.064l2.152,4.061
					c0,0,1.147-0.822,4.146-3.851c-0.678,2.272-1.832,6.098-2.957,9.65C41.921,45.801,40.752,49.365,40.752,49.365z"/>
				<path fill="#004DA0" d="M73.915,23.767l2.762-9.318h-4.824l-2.804,9.34c-8.574,0.043-14.271,0.038-14.271,0.038l-1.344,5.015
					c2.837-0.029,8.065-0.003,14.019-0.013c-0.271,0.865-6.858,21.833-6.852,21.833c-2.393,6.379-8.567,6.081-16.249,3.213
					c6.96,5.225,16.572,8.748,20.563-1.543l7.396-23.51c4.032,0,6.139,0.021,6.139,0.021l1.641-5.083
					C80.092,23.759,78.947,23.748,73.915,23.767z"/>
			</g>
			<g>
				<path fill="#004DA0" d="M15.086,32.195l-4.263,0.051c-0.751,0.009-1.412,0.5-1.635,1.218l-2.432,7.797
					c-0.138,0.441,0.196,0.89,0.659,0.884l4.814-0.056c0.695-0.009,1.304-0.466,1.506-1.131l2.287-7.516
					C16.213,32.817,15.74,32.188,15.086,32.195z M11.61,39.271l-1.677,0.001l1.372-4.377l1.688-0.01L11.61,39.271z"/>
				<path fill="#004DA0" d="M15.626,42.052l4.708-0.057c0.719-0.008,1.349-0.48,1.559-1.167l2.313-7.603
					c0.171-0.564-0.254-1.133-0.844-1.125l-4.355,0.052c-0.774,0.009-1.454,0.516-1.685,1.255l-2.4,7.697
					C14.774,41.579,15.131,42.058,15.626,42.052z M19.451,34.951l1.617-0.009l-1.383,4.386l-1.606,0.001L19.451,34.951z"/>
				<path fill="#004DA0" d="M39.719,22.391l-6.603,0.085l3-5.549c-1.245-0.595-3.866-2.103-4.401-2.478
					c-1.563,4.683-3.389,9.85-7.932,14.017l2.147,3.357c1.551-1.666,3.262-3.74,4.765-5.869l5.902-0.043
					c-0.36,1.133-1.689,3.917-1.689,3.917l4.142,0.013l2.109-5.366C41.556,23.467,40.803,22.378,39.719,22.391z"/>
				<path fill="#004DA0" d="M24.243,22.161h-8.819c-0.775,0-1.46,0.504-1.69,1.245l-2.121,6.799
					c-0.124,0.398,0.176,0.801,0.593,0.797l9.188-0.092c0.553-0.006,1.04-0.367,1.203-0.896l2.208-7.09
					C24.923,22.545,24.639,22.161,24.243,22.161z M19.685,28.132l-3.946-0.002l0.949-3.003h3.983L19.685,28.132z"/>
				<path fill="#004DA0" d="M31.846,35.146c0.831-3.089,2.201-7.558,2.201-7.558h-3.824c0,0-1.322,4.528-2.746,7.736
					c-1.474,3.321-3.412,6.101-5.234,8.261L4.419,43.999c0,0,6.292-19.879,6.478-20.452c0.805-2.544,2.21-2.952,4.522-2.918
					c6.604,0.008,12.618-0.02,12.618-0.02l1.124-3.741c0,0-9.003,0.018-14.828,0.018c-3.005,0-5.359,0.667-6.605,4.343
					C7.502,21.894,2.069,39.114,0.08,45.443c-0.347,1.104,0.492,2.223,1.65,2.198l16.933-0.348
					c-1.161,1.048-1.928,1.597-1.928,1.597c1.262,0.546,3.91,1.818,3.91,1.818c3.697-3.235,7.301-9.235,7.301-9.235
					c0.487,3.072,2.103,6.821,3.75,8.68l3.656-3.62C32.534,45.173,30.947,38.491,31.846,35.146z"/>
			</g>
		</g>
		<g>
			<path fill="#004DA0" d="M106.101,33.079L84.48,33.082c-1.347,0-2.534,0.888-2.914,2.182c-0.787,2.669-2.115,7.159-2.93,9.785
				c-0.167,0.532,0.231,1.072,0.79,1.072c0.887,0,2.242,0,3.871,0c-4.643,1.78-7.31,2.159-7.31,2.159l0.838,3.49
				c4.656-1.135,8.104-2.738,10.534-3.774l-0.668-1.875c2.944,0,6.247,0,9.19,0l-0.647,1.2c3.21,1.663,6.709,3.835,8.606,5.099
				l1.165-3.716c-0.469-0.323-2.543-1.503-4.47-2.583c1.175,0,2.141,0,2.794,0c0.56,0,1.05-0.366,1.21-0.902l3.04-10.151
				C107.876,34.076,107.134,33.079,106.101,33.079z M103.57,35.509l-0.452,1.512H84.76l0.453-1.511L103.57,35.509z M102.571,38.847
				l-0.453,1.512H83.759l0.452-1.512H102.571z M82.758,43.693l0.453-1.507h18.359l-0.452,1.507H82.758z"/>
			<path fill="#004DA0" d="M113.662,17.186h-11.607c0.01-0.057,0.02-0.114,0.025-0.172c0.158-1.572-1.022-2.848-2.637-2.848
				s-3.05,1.275-3.207,2.848c-0.006,0.058-0.006,0.115-0.009,0.172h-9.604c-1.85-0.03-3.067,0.363-3.611,2.02
				c-0.545,1.657-1.248,3.852-1.248,3.852h2.564l-0.317,1.083h3.574l-0.451,1.485l-4.349,0.099l-0.657,2.351l4.313-0.175
				l-0.521,1.717l-6.039,0.506l0.022,2.704c2.449-0.48,11.294-1.571,12.931-1.716l0.758-2.136l-4.397,0.368l0.478-1.573l4.024-0.163
				l0.635-2.146l-3.983,0.091l0.429-1.411h4.155l0.698-2.314h-9.618l0.484-1.616H99.72c-0.224,0.314-0.671,0.899-1.521,1.858
				c-1.088,1.229-2.162,2.104-2.162,2.104l2.084,1.408H95.65l-0.633,2.042h6.786l-0.641,2.107l-3.193,0.019l0.347-1.156h-2.998
				l-0.727,2.419c-0.108,0.359,0.164,0.721,0.54,0.719l14.44-0.091c0.349-0.002,0.658-0.232,0.76-0.568l0.756-2.479h-3.159
				l-0.329,1.098l-3.239,0.02l0.635-2.087h7.513l0.62-2.042h-7.511l0.425-1.401l4.755-0.039l0.284-0.905h3.21l1.104-3.731
				C115.737,18.347,114.868,17.186,113.662,17.186z M111.333,20.21l-0.537,1.761h-9.125c0.28-0.283,0.556-0.549,0.819-0.782
				c-0.993-0.492-1.602-0.793-1.978-0.979H111.333z M102.424,25.581h-3.887c0.201-0.255,0.599-0.754,1.101-1.349l3.204-0.026
				L102.424,25.581z"/>
		</g>
	</g>
	<g>
		<path fill="#FFFFFF" d="M69.072,36.008l-4.578-4.416c-0.117-0.108-0.257-0.188-0.408-0.231l-3.433-0.979
			c-0.089-0.025-0.18-0.038-0.271-0.038h-4.958c-0.072,0-0.143,0.008-0.213,0.023l-4.443,0.978
			c-0.175,0.039-0.336,0.125-0.466,0.247l-4.579,4.416c-0.397,0.374-0.418,0.998-0.047,1.398L56.67,49.13
			c0.188,0.201,0.451,0.316,0.727,0.316s0.54-0.115,0.727-0.316l10.995-11.724C69.49,37.006,69.469,36.382,69.072,36.008z"/>
		<g>
			<g>
				
					<linearGradient id="SVGID_1_" gradientUnits="userSpaceOnUse" x1="276.4153" y1="14.1707" x2="276.8094" y2="16.8218" gradientTransform="matrix(1 -0.0443 0 1 -221.3994 31.1899)">
					<stop  offset="0" style="stop-color:#FFFFFF"/>
					<stop  offset="0.176" style="stop-color:#FBF5D3"/>
					<stop  offset="0.5821" style="stop-color:#F2DF72"/>
					<stop  offset="0.8656" style="stop-color:#ECD036"/>
					<stop  offset="1" style="stop-color:#EACB1E"/>
				</linearGradient>
				<polygon fill="url(#SVGID_1_)" points="58.265,34.53 58.514,33.712 58.414,33.037 56.075,33.138 51.732,33.954 52.122,34.341 
					53.401,34.487 55.999,34.674 				"/>
				
					<linearGradient id="SVGID_2_" gradientUnits="userSpaceOnUse" x1="271.4709" y1="13.5212" x2="279.0041" y2="13.1701" gradientTransform="matrix(1 -0.0443 0 1 -221.3994 31.1899)">
					<stop  offset="0" style="stop-color:#FFFFFF"/>
					<stop  offset="0.2131" style="stop-color:#F9E4C7"/>
					<stop  offset="0.6008" style="stop-color:#F0B667"/>
					<stop  offset="0.8717" style="stop-color:#E9992A"/>
					<stop  offset="1" style="stop-color:#E78E12"/>
				</linearGradient>
				<polygon fill="url(#SVGID_2_)" points="50.98,32.033 50.49,32.745 50.241,33.347 50.333,33.555 51.128,33.732 53.641,32.448 
					55.423,31.055 				"/>
				
					<linearGradient id="SVGID_3_" gradientUnits="userSpaceOnUse" x1="280.8997" y1="11.718" x2="278.6728" y2="12.9824" gradientTransform="matrix(1 -0.0443 0 1 -221.3994 31.1899)">
					<stop  offset="0" style="stop-color:#FFFFFF"/>
					<stop  offset="0.2332" style="stop-color:#C0DEEF"/>
					<stop  offset="0.6109" style="stop-color:#60ABD6"/>
					<stop  offset="0.8749" style="stop-color:#238AC6"/>
					<stop  offset="1" style="stop-color:#0B7EC0"/>
				</linearGradient>
				<polygon fill="url(#SVGID_3_)" points="60.38,31.055 55.423,31.055 56.751,32.11 58.414,33.037 59.65,32.011 				"/>
				
					<linearGradient id="SVGID_4_" gradientUnits="userSpaceOnUse" x1="285.3352" y1="13.7219" x2="271.9023" y2="13.3999" gradientTransform="matrix(1 -0.0443 0 1 -221.3994 31.1899)">
					<stop  offset="0" style="stop-color:#FFFFFF"/>
					<stop  offset="0.176" style="stop-color:#FBF5D3"/>
					<stop  offset="0.5821" style="stop-color:#F2DF72"/>
					<stop  offset="0.8656" style="stop-color:#ECD036"/>
					<stop  offset="1" style="stop-color:#EACB1E"/>
				</linearGradient>
				<polygon fill="url(#SVGID_4_)" points="62.925,33.581 63.608,33.352 63.728,32.987 63.708,32.713 62.588,32.008 60.38,31.055 
					58.414,33.037 60.977,33.564 				"/>
				
					<linearGradient id="SVGID_5_" gradientUnits="userSpaceOnUse" x1="285.26" y1="15.1892" x2="271.92" y2="14.8694" gradientTransform="matrix(1 -0.0443 0 1 -221.3994 31.1899)">
					<stop  offset="0" style="stop-color:#FFFFFF"/>
					<stop  offset="0.0301" style="stop-color:#F4F9FB"/>
					<stop  offset="0.2386" style="stop-color:#AFCFE5"/>
					<stop  offset="0.4357" style="stop-color:#75ADD1"/>
					<stop  offset="0.6159" style="stop-color:#4892C3"/>
					<stop  offset="0.7756" style="stop-color:#287FB8"/>
					<stop  offset="0.9091" style="stop-color:#1473B1"/>
					<stop  offset="1" style="stop-color:#0D6FAF"/>
				</linearGradient>
				<polygon fill="url(#SVGID_5_)" points="59.211,34.534 62.925,33.581 58.414,33.037 58.265,34.53 58.632,34.665 				"/>
				
					<linearGradient id="SVGID_6_" gradientUnits="userSpaceOnUse" x1="285.6418" y1="14.0403" x2="282.4365" y2="12.5424" gradientTransform="matrix(1 -0.0443 0 1 -221.3994 31.1899)">
					<stop  offset="0" style="stop-color:#FFFFFF"/>
					<stop  offset="0.0891" style="stop-color:#F4F9EB"/>
					<stop  offset="0.5383" style="stop-color:#C0D98A"/>
					<stop  offset="0.8515" style="stop-color:#9FC64E"/>
					<stop  offset="1" style="stop-color:#92BE36"/>
				</linearGradient>
				<polygon fill="url(#SVGID_6_)" points="63.814,32.033 60.38,31.055 63.708,32.713 63.864,32.419 				"/>
				
					<linearGradient id="SVGID_7_" gradientUnits="userSpaceOnUse" x1="274.9114" y1="14.8792" x2="277.8703" y2="13.4072" gradientTransform="matrix(1 -0.0443 0 1 -221.3994 31.1899)">
					<stop  offset="0" style="stop-color:#FFFFFF"/>
					<stop  offset="0.2332" style="stop-color:#C0DEEF"/>
					<stop  offset="0.6109" style="stop-color:#60ABD6"/>
					<stop  offset="0.8749" style="stop-color:#238AC6"/>
					<stop  offset="1" style="stop-color:#0B7EC0"/>
				</linearGradient>
				<polygon fill="url(#SVGID_7_)" points="51.732,33.954 58.414,33.037 55.423,31.055 51.128,33.732 51.179,33.977 				"/>
			</g>
			<g>
				<g>
					<polygon fill="#00437C" points="57.396,48.654 46.16,36.569 47.911,37.179 51.065,39.585 52.716,41.679 					"/>
					<polygon fill="#008CC2" points="55.965,39.548 56.126,41.607 57.396,48.654 51.065,39.585 50.69,39.039 					"/>
					<polygon fill="#3DB8EB" points="57.396,40.268 57.664,42.583 57.396,48.654 55.354,39.378 					"/>
					
						<linearGradient id="SVGID_8_" gradientUnits="userSpaceOnUse" x1="-1075.7341" y1="31.863" x2="-1072.0985" y2="37.1025" gradientTransform="matrix(-1 0 0 1 -1024.9126 0)">
						<stop  offset="0" style="stop-color:#FFFFFF"/>
						<stop  offset="0.2354" style="stop-color:#B5D0E7"/>
						<stop  offset="0.5607" style="stop-color:#5593C8"/>
						<stop  offset="0.788" style="stop-color:#186DB5"/>
						<stop  offset="0.8957" style="stop-color:#005EAD"/>
					</linearGradient>
					<polygon fill="url(#SVGID_8_)" points="50.98,32.033 51.185,33.352 49.144,34.701 46.16,36.569 					"/>
					
						<linearGradient id="SVGID_9_" gradientUnits="userSpaceOnUse" x1="-1081.5466" y1="36.8728" x2="-1078.8046" y2="39.5356" gradientTransform="matrix(-1 0 0 1 -1024.9126 0)">
						<stop  offset="0" style="stop-color:#FFFFFF"/>
						<stop  offset="0.2628" style="stop-color:#F9EFB5"/>
						<stop  offset="0.6259" style="stop-color:#F2DB55"/>
						<stop  offset="0.8798" style="stop-color:#EDCE18"/>
						<stop  offset="1" style="stop-color:#EBC900"/>
					</linearGradient>
					<polygon fill="url(#SVGID_9_)" points="51.918,37.78 55.124,34.204 56.141,35.878 57.396,38.062 57.396,40.268 51.065,39.585 
											"/>
					
						<linearGradient id="SVGID_10_" gradientUnits="userSpaceOnUse" x1="-1073.8884" y1="34.1082" x2="-1077.001" y2="36.214" gradientTransform="matrix(-1 0 0 1 -1024.9126 0)">
						<stop  offset="0.1202" style="stop-color:#FFFFFF"/>
						<stop  offset="0.1889" style="stop-color:#FEFBF7"/>
						<stop  offset="0.2927" style="stop-color:#FDEFE3"/>
						<stop  offset="0.4185" style="stop-color:#FBDDC1"/>
						<stop  offset="0.5604" style="stop-color:#F7C392"/>
						<stop  offset="0.5695" style="stop-color:#F7C18F"/>
						<stop  offset="0.6752" style="stop-color:#F5AF70"/>
						<stop  offset="0.9049" style="stop-color:#EF8022"/>
						<stop  offset="1" style="stop-color:#EC6C00"/>
					</linearGradient>
					<polygon fill="url(#SVGID_10_)" points="49.808,36.066 51.089,33.596 51.185,33.352 55.124,34.204 52.023,38.315 
						51.065,39.585 					"/>
					<linearGradient id="SVGID_11_" gradientUnits="userSpaceOnUse" x1="51.9578" y1="35.4128" x2="48.2947" y2="38.3313">
						<stop  offset="0" style="stop-color:#FFFFFF"/>
						<stop  offset="0.1088" style="stop-color:#FAE6EF"/>
						<stop  offset="0.5482" style="stop-color:#E785B3"/>
						<stop  offset="0.8547" style="stop-color:#DC498D"/>
						<stop  offset="1" style="stop-color:#D7317E"/>
					</linearGradient>
					<polygon fill="url(#SVGID_11_)" points="51.185,33.352 51.065,39.585 46.16,36.569 					"/>
				</g>
				<polygon fill="#054E95" points="57.396,40.268 58.237,39.87 58.898,40.009 57.396,48.654 				"/>
				<polygon fill="#192548" points="57.396,48.654 68.632,36.569 66.812,37.015 63.728,39.585 61.589,42.265 				"/>
				
					<linearGradient id="SVGID_12_" gradientUnits="userSpaceOnUse" x1="285.1907" y1="38.0457" x2="282.9368" y2="33.5768" gradientTransform="matrix(1 0 0 1 -221.3994 0)">
					<stop  offset="0" style="stop-color:#FFFFFF"/>
					<stop  offset="0.2628" style="stop-color:#B5DFE6"/>
					<stop  offset="0.6259" style="stop-color:#55B5C5"/>
					<stop  offset="0.8798" style="stop-color:#189BB0"/>
					<stop  offset="1" style="stop-color:#0091A8"/>
				</linearGradient>
				<polygon fill="url(#SVGID_12_)" points="64.215,36.305 63.703,33.596 63.608,33.352 59.669,34.204 62.469,38.221 63.728,39.585 
									"/>
				<polygon fill="#003C82" points="61.54,39.821 60.029,42.082 57.396,48.654 63.728,39.585 63.728,39.585 62.43,39.465 				"/>
				<polygon fill="#036EB7" points="58.559,39.923 57.396,48.654 61.66,39.585 60.394,39.378 				"/>
				
					<linearGradient id="SVGID_13_" gradientUnits="userSpaceOnUse" x1="285.3694" y1="31.863" x2="289.0049" y2="37.1025" gradientTransform="matrix(1 0 0 1 -221.3994 0)">
					<stop  offset="0" style="stop-color:#FFFFFF"/>
					<stop  offset="0.2012" style="stop-color:#CBE7F5"/>
					<stop  offset="0.5948" style="stop-color:#6ABBE4"/>
					<stop  offset="0.8697" style="stop-color:#2EA0D8"/>
					<stop  offset="1" style="stop-color:#1695D4"/>
				</linearGradient>
				<polygon fill="url(#SVGID_13_)" points="63.814,32.033 63.608,33.352 65.65,34.701 68.632,36.569 				"/>
				
					<linearGradient id="SVGID_14_" gradientUnits="userSpaceOnUse" x1="285.1526" y1="35.4773" x2="287.7696" y2="38.2802" gradientTransform="matrix(1 0 0 1 -221.3994 0)">
					<stop  offset="0" style="stop-color:#FFFFFF"/>
					<stop  offset="0.1049" style="stop-color:#FAE7EF"/>
					<stop  offset="0.5462" style="stop-color:#E786B0"/>
					<stop  offset="0.8541" style="stop-color:#DC4A88"/>
					<stop  offset="1" style="stop-color:#D73279"/>
				</linearGradient>
				<polygon fill="url(#SVGID_14_)" points="63.608,33.352 63.728,39.585 68.632,36.569 				"/>
				
					<linearGradient id="SVGID_15_" gradientUnits="userSpaceOnUse" x1="279.5579" y1="36.8728" x2="282.2999" y2="39.5356" gradientTransform="matrix(1 0 0 1 -221.3994 0)">
					<stop  offset="0" style="stop-color:#FFFFFF"/>
					<stop  offset="0.1455" style="stop-color:#DCE9F4"/>
					<stop  offset="0.5667" style="stop-color:#7BADD7"/>
					<stop  offset="0.8607" style="stop-color:#3F87C4"/>
					<stop  offset="1" style="stop-color:#2778BD"/>
				</linearGradient>
				<polygon fill="url(#SVGID_15_)" points="59.669,34.204 58.652,35.878 57.11,38.56 57.396,40.268 63.728,39.585 				"/>
				<linearGradient id="SVGID_16_" gradientUnits="userSpaceOnUse" x1="57.3962" y1="32.9021" x2="57.3962" y2="39.0755">
					<stop  offset="0" style="stop-color:#FFFFFF"/>
					<stop  offset="0.1096" style="stop-color:#EBF4E1"/>
					<stop  offset="0.4793" style="stop-color:#A9D280"/>
					<stop  offset="0.7372" style="stop-color:#80BC44"/>
					<stop  offset="0.8594" style="stop-color:#70B42C"/>
				</linearGradient>
				<polygon fill="url(#SVGID_16_)" points="55.124,34.204 59.669,34.204 57.396,40.268 				"/>
			</g>
		</g>
	</g>
</g>
</svg>
